<?xml version="1.0" encoding="utf-8"?>
<!-- Generator: Adobe Illustrator 19.2.1, SVG Export Plug-In . SVG Version: 6.00 Build 0)  -->
<svg version="1.1" xmlns="http://www.w3.org/2000/svg" xmlns:xlink="http://www.w3.org/1999/xlink" x="0px" y="0px" width="235px"
	 height="81.7px" viewBox="0 0 235 81.7" style="enable-background:new 0 0 235 81.7;" xml:space="preserve">
<style type="text/css">
	.st0{enable-background:new    ;}
	.st1{fill:#333333;}
	.st2{fill:#474747;}
	.st3{fill:#C7C7C7;}
</style>
<g id="Shape_1_copy_2_1_" class="st0">
	<g id="Shape_1_copy_2">
		<g>
			<path class="st1" d="M108.6,34.6c-3.9,0.8-7,3.6-8.4,7.3h12.6L108.6,34.6z M119.5,38.1c-2.1-2.3-5.2-3.8-8.5-3.8
				c-0.7,0-1.3,0.1-2,0.2l6.3,10.9L119.5,38.1z M113.5,49.4h8.4c0.4-1.1,0.6-2.3,0.6-3.5c0-2.8-1-5.4-2.7-7.4L113.5,49.4z
				 M102.5,53.6c2.1,2.3,5.2,3.8,8.5,3.8c0.7,0,1.3-0.1,2-0.2l-6.3-10.9L102.5,53.6z M100,42.3c-0.4,1.1-0.6,2.3-0.6,3.5
				c0,2.8,1,5.4,2.7,7.4l6.3-10.9H100z M113.4,57.1c3.9-0.8,7-3.6,8.4-7.3h-12.6L113.4,57.1z M135.6,34.6c-3.9,0.8-7,3.6-8.4,7.3
				h12.6L135.6,34.6z M146.5,38.1c-2.1-2.3-5.2-3.8-8.5-3.8c-0.7,0-1.3,0.1-2,0.2l6.3,10.9L146.5,38.1z M146.8,38.5l-6.3,10.9h8.4
				c0.4-1.1,0.6-2.3,0.6-3.5C149.5,43.1,148.5,40.5,146.8,38.5z M129.5,53.6c2.1,2.3,5.2,3.8,8.5,3.8c0.7,0,1.3-0.1,2-0.2l-6.3-10.9
				L129.5,53.6z M127,42.3c-0.4,1.1-0.6,2.3-0.6,3.5c0,2.8,1,5.4,2.7,7.4l6.3-10.9H127z M140.4,57.1c3.9-0.8,7-3.6,8.4-7.3h-12.6
				L140.4,57.1z"/>
		</g>
	</g>
</g>
<g id="__sh_______t_copy_1_" class="st0">
	<g id="__sh_______t_copy">
		<g>
			<path class="st2" d="M61.2,25.8c-0.8,0.4-2,0.6-3.1,0.6c-3.4,0-5-2.2-4.4-5.6c0.7-3.7,3.2-5.8,6.5-5.8c1.2,0,2.1,0.3,2.7,0.6
				l0.7-1.5c-0.4-0.3-1.5-0.6-3.2-0.6c-4.4,0-7.9,3-8.6,7.4c-0.8,4.6,1.7,7.1,5.7,7.1c1.7,0,3.1-0.3,3.8-0.7L61.2,25.8z M70.6,27.9
				c3.6,0,7-2.6,7.8-7.4c0.7-4.2-1.2-7.1-5.1-7.1c-3.8,0-7,2.9-7.8,7.4C64.8,25,66.9,27.9,70.6,27.9z M67.5,20.7
				c0.5-3.1,2.5-5.9,5.5-5.9c3,0,4,2.9,3.5,5.7c-0.6,3.2-2.7,5.8-5.5,5.8C68.1,26.4,66.9,23.7,67.5,20.7z M90,23.9
				c0.4-2.1-0.6-3.2-2.9-4.1c-1.8-0.7-2.5-1.4-2.3-2.7c0.2-1,1.1-2.1,3-2.1c1.3,0,2.1,0.4,2.6,0.7l0.8-1.5c-0.6-0.4-1.5-0.7-3-0.7
				c-2.7,0-4.8,1.6-5.2,3.8c-0.3,2,0.9,3.2,3,4c1.8,0.7,2.4,1.5,2.2,2.8c-0.3,1.4-1.5,2.4-3.4,2.4c-1.3,0-2.4-0.4-3.1-0.9L81,27
				c0.7,0.5,2.1,0.9,3.4,0.9C87.7,27.9,89.7,26,90,23.9z M103.1,20.4c-0.9,1.8-1.7,3.3-2.3,4.7h-0.1c-0.1-1.5-0.3-3-0.6-4.7L99,13.6
				h-2.3l-3.5,14h1.7l1.4-6c0.5-2.1,1-4.5,1.4-6.2h0c0.1,1.7,0.3,3.5,0.7,5.5l1.1,6.7h1.4l3.7-6.8c1.1-1.9,1.9-3.7,2.7-5.3h0.1
				c-0.3,1.7-0.6,4.1-0.9,6.1l-0.7,6.2h1.8l1.6-14h-2.3L103.1,20.4z M112.4,27.7h1.8l2.5-14h-1.8L112.4,27.7z M119.1,20.8
				c-0.8,4.6,1.7,7.1,5.7,7.1c1.7,0,3.1-0.3,3.8-0.7l-0.1-1.4c-0.8,0.4-2,0.6-3.1,0.6c-3.4,0-5-2.2-4.4-5.6c0.7-3.7,3.2-5.8,6.5-5.8
				c1.2,0,2.1,0.3,2.7,0.6L131,14c-0.4-0.3-1.5-0.6-3.2-0.6C123.4,13.4,119.9,16.4,119.1,20.8z M74.3,35.2c-0.1-0.1-0.3-0.3-0.7-0.4
				c-0.3-0.2-0.7-0.3-1.2-0.5S71.5,34,71,34c-0.5-0.1-1.1-0.1-1.6-0.1c-1.1,0-2.1,0.1-3.1,0.4c-1,0.3-1.9,0.7-2.7,1.2
				c-0.8,0.6-1.5,1.3-2,2.1s-0.9,1.8-1.1,2.9c-0.2,1-0.2,1.8,0,2.5c0.2,0.7,0.4,1.3,0.8,1.8c0.4,0.5,0.8,0.9,1.3,1.3
				c0.5,0.4,1.1,0.7,1.6,1c0.6,0.3,1.1,0.6,1.7,0.8c0.5,0.3,1,0.5,1.4,0.8c0.4,0.3,0.7,0.6,0.9,1c0.2,0.4,0.3,0.8,0.2,1.4
				c-0.1,0.5-0.2,0.9-0.5,1.2c-0.2,0.4-0.5,0.7-0.9,0.9c-0.4,0.3-0.8,0.4-1.3,0.6c-0.5,0.1-1,0.2-1.6,0.2c-0.9,0-1.6-0.1-2.3-0.3
				c-0.6-0.2-1.2-0.4-1.6-0.7c-0.4-0.2-0.8-0.5-1.1-0.7c-0.3-0.2-0.5-0.3-0.7-0.3c-0.1,0-0.2,0-0.3,0.1c-0.1,0.1-0.2,0.2-0.3,0.3
				c-0.1,0.2-0.2,0.4-0.2,0.6c-0.1,0.3-0.1,0.6-0.2,0.9c-0.1,0.5-0.1,1-0.1,1.3c0,0.3,0.1,0.5,0.2,0.7c0.1,0.2,0.4,0.3,0.7,0.5
				c0.3,0.2,0.7,0.4,1.2,0.6c0.5,0.2,1.1,0.3,1.7,0.5c0.7,0.1,1.4,0.2,2.2,0.2c1.2,0,2.3-0.2,3.4-0.5c1.1-0.3,2.1-0.8,3-1.4
				c0.9-0.6,1.6-1.4,2.3-2.3c0.6-0.9,1-2,1.2-3.2c0.2-0.9,0.2-1.7,0-2.4c-0.2-0.7-0.4-1.3-0.8-1.8c-0.4-0.5-0.8-0.9-1.4-1.3
				c-0.5-0.4-1.1-0.7-1.7-1s-1.1-0.6-1.7-0.8c-0.6-0.3-1-0.5-1.5-0.8c-0.4-0.3-0.7-0.6-1-1c-0.2-0.4-0.3-0.8-0.2-1.3
				c0.1-0.3,0.2-0.7,0.4-1c0.2-0.3,0.4-0.6,0.7-0.8c0.3-0.2,0.6-0.4,1.1-0.5s0.9-0.2,1.4-0.2c0.7,0,1.2,0.1,1.8,0.2
				c0.5,0.2,1,0.3,1.4,0.5c0.4,0.2,0.7,0.4,1,0.5c0.3,0.2,0.5,0.3,0.6,0.3c0.1,0,0.2,0,0.3-0.1s0.2-0.2,0.2-0.3
				c0.1-0.2,0.1-0.4,0.2-0.6c0.1-0.2,0.1-0.5,0.2-0.9c0.1-0.3,0.1-0.6,0.1-0.8c0-0.2,0-0.4,0-0.5c0-0.1,0-0.2,0-0.3
				C74.5,35.5,74.4,35.4,74.3,35.2z M96.6,34.3c-0.2-0.1-0.4-0.1-0.7-0.1c-0.3,0-0.7-0.1-1.1-0.1c-0.5,0-0.9,0-1.2,0.1
				c-0.3,0-0.6,0.1-0.7,0.1c-0.2,0.1-0.3,0.1-0.4,0.2c-0.1,0.1-0.2,0.2-0.2,0.3l-1.5,8.5h-8.7l1.5-8.5c0-0.1,0-0.2-0.1-0.3
				c-0.1-0.1-0.2-0.2-0.3-0.2c-0.2-0.1-0.4-0.1-0.7-0.1c-0.3,0-0.7-0.1-1.1-0.1c-0.5,0-0.8,0-1.1,0.1c-0.3,0-0.6,0.1-0.8,0.1
				c-0.2,0.1-0.3,0.1-0.4,0.2c-0.1,0.1-0.2,0.2-0.2,0.3L75,56.8c0,0.1,0,0.2,0.1,0.3c0.1,0.1,0.2,0.2,0.3,0.2
				c0.2,0.1,0.4,0.1,0.7,0.1c0.3,0,0.7,0.1,1.1,0.1c0.5,0,0.9,0,1.2-0.1c0.3,0,0.6-0.1,0.7-0.1c0.2-0.1,0.3-0.1,0.4-0.2
				c0.1-0.1,0.1-0.2,0.2-0.3l1.7-9.4h8.7l-1.7,9.4c0,0.1,0,0.2,0.1,0.3c0.1,0.1,0.2,0.2,0.3,0.2c0.2,0.1,0.4,0.1,0.7,0.1
				c0.3,0,0.7,0.1,1.1,0.1c0.5,0,0.8,0,1.1-0.1c0.3,0,0.6-0.1,0.7-0.1c0.2-0.1,0.3-0.1,0.4-0.2c0.1-0.1,0.2-0.2,0.2-0.3L97,34.9
				c0-0.1,0-0.2-0.1-0.3C96.9,34.5,96.8,34.4,96.6,34.3z M168.2,34.7c0-0.1-0.1-0.3-0.2-0.3c-0.1-0.1-0.2-0.1-0.3-0.1h-16.4
				c-0.1,0-0.2,0-0.3,0.1c-0.1,0.1-0.2,0.2-0.3,0.3c-0.1,0.1-0.2,0.3-0.2,0.6c-0.1,0.3-0.1,0.6-0.2,0.9c-0.1,0.3-0.1,0.6-0.1,0.9
				c0,0.2,0,0.4,0,0.6c0,0.1,0.1,0.3,0.2,0.3s0.2,0.1,0.3,0.1h5.8l-3.3,18.7c0,0.1,0,0.2,0.1,0.3c0.1,0.1,0.2,0.2,0.3,0.2
				c0.2,0.1,0.4,0.1,0.7,0.1c0.3,0,0.7,0.1,1.1,0.1c0.5,0,0.8,0,1.1-0.1c0.3,0,0.6-0.1,0.8-0.1c0.2-0.1,0.3-0.1,0.4-0.2
				c0.1-0.1,0.2-0.2,0.2-0.3l3.3-18.7h5.8c0.1,0,0.2,0,0.3-0.1s0.2-0.2,0.3-0.3c0.1-0.1,0.2-0.3,0.2-0.6c0.1-0.2,0.1-0.5,0.2-0.9
				c0.1-0.4,0.1-0.7,0.1-0.9C168.2,35,168.2,34.8,168.2,34.7z"/>
		</g>
	</g>
</g>
<g id="sign_1_" class="st0">
	<g id="sign">
		<g>
			<path class="st3" d="M9.9,71C1.3,61,30,44.4,30,44.4s-12.6,6.7-19.9,12.2C-11,72.5,6.6,80.9,11.7,81.4
				c30.1,3.1,95.1-19.6,95.1-19.6S23.3,84.4,9.9,71z M223.3,0.3c-30.1-3.1-95.1,19.6-95.1,19.6s83.4-22.6,96.9-9.2
				c8.6,10-20.2,26.6-20.2,26.6s12.6-6.7,19.9-12.2C246,9.2,228.4,0.8,223.3,0.3z"/>
		</g>
	</g>
</g>
</svg>
